<svg width="36" height="36" viewBox="0 0 36 36" fill="none" xmlns="http://www.w3.org/2000/svg">
<path d="M27.0004 17.0744C26.0112 17.0744 25.0397 17.3369 24.1849 17.8349C23.4498 16.8972 22.5109 16.1389 21.4395 15.6174C20.3681 15.0959 19.1921 14.825 18.0004 14.825C16.8088 14.825 15.6328 15.0959 14.5614 15.6174C13.49 16.1389 12.5511 16.8972 11.8159 17.8349C10.961 17.3387 9.99044 17.0765 9.00194 17.0748C8.01345 17.0731 7.04196 17.3319 6.18532 17.8252C5.32869 18.3184 4.61716 19.0287 4.12242 19.8845C3.62768 20.7403 3.36719 21.7113 3.36719 22.6998C3.36719 23.6883 3.62768 24.6594 4.12242 25.5151C4.61716 26.3709 5.32869 27.0812 6.18532 27.5745C7.04196 28.0677 8.01345 28.3265 9.00194 28.3248C9.99044 28.3231 10.961 28.0609 11.8159 27.5647C12.5511 28.5025 13.49 29.2608 14.5614 29.7822C15.6328 30.3037 16.8088 30.5747 18.0004 30.5747C19.1921 30.5747 20.3681 30.3037 21.4395 29.7822C22.5109 29.2608 23.4498 28.5025 24.1849 27.5647C24.9317 27.9965 25.7677 28.2507 26.6285 28.3077C27.4892 28.3646 28.3514 28.2228 29.1486 27.8931C29.9457 27.5635 30.6562 27.0548 31.2253 26.4066C31.7944 25.7583 32.2066 24.9878 32.4302 24.1547C32.6538 23.3216 32.6828 22.4482 32.5148 21.6021C32.3468 20.7561 31.9864 19.96 31.4615 19.2755C30.9365 18.591 30.2612 18.0365 29.4876 17.6548C28.714 17.2731 27.863 17.0746 27.0004 17.0744Z" stroke="#087021" stroke-width="1.5" stroke-linecap="round" stroke-linejoin="round"/>
<path d="M21.6384 15.72C21.6409 15.655 21.6422 15.5895 21.6422 15.5235C21.6419 14.7383 21.4654 13.963 21.1258 13.255C20.7862 12.547 20.2921 11.9241 19.6799 11.4323C19.0676 10.9406 18.3529 10.5924 17.5883 10.4135C16.8236 10.2346 16.0286 10.2295 15.2617 10.3986C14.4949 10.5677 13.7757 10.9066 13.1572 11.3905C12.5387 11.8744 12.0367 12.4908 11.688 13.1945C11.3394 13.8981 11.153 14.671 11.1426 15.4562C11.1323 16.2414 11.2982 17.019 11.6282 17.7315M16.3922 7.67554V5.42554M10.8429 9.97354L9.25217 8.38279M8.54492 15.5228H6.29492M21.9414 9.97354L23.5322 8.38279M24.2394 15.5228H26.4894" stroke="#087021" stroke-width="1.5" stroke-linecap="round" stroke-linejoin="round"/>
</svg>
