<svg width="30" height="30" viewBox="0 0 30 30" fill="none" xmlns="http://www.w3.org/2000/svg">
<g clip-path="url(#clip0_197_27160)">
<path d="M15.0003 2.08325C7.65033 2.08325 1.66699 7.31659 1.66699 13.7499C1.66699 20.1833 7.65033 25.4166 15.0003 25.4166C16.3754 25.415 17.7438 25.2243 19.067 24.8499L23.6753 27.7833C23.8011 27.864 23.9463 27.9094 24.0957 27.9147C24.2451 27.92 24.3932 27.885 24.5244 27.8134C24.6556 27.7419 24.7651 27.6363 24.8416 27.5078C24.918 27.3794 24.9584 27.2327 24.9587 27.0833V21.4749C26.0014 20.4746 26.8334 19.2759 27.4059 17.9492C27.9783 16.6226 28.2796 15.1948 28.292 13.7499C28.3337 7.31659 22.3503 2.08325 15.0003 2.08325ZM23.5753 20.5083C23.4915 20.586 23.4246 20.68 23.3788 20.7847C23.3329 20.8894 23.309 21.0023 23.3087 21.1166V25.5666L19.6587 23.2416C19.5568 23.1772 19.4423 23.1357 19.3229 23.1199C19.2035 23.1041 19.0821 23.1143 18.967 23.1499C17.6826 23.5488 16.3452 23.7511 15.0003 23.7499C8.56699 23.7499 3.33366 19.2666 3.33366 13.7499C3.33366 8.23325 8.56699 3.74992 15.0003 3.74992C21.4337 3.74992 26.667 8.23325 26.667 13.7499C26.648 15.0291 26.3634 16.2905 25.8312 17.4539C25.2989 18.6173 24.5308 19.6574 23.5753 20.5083Z" fill="#087021"/>
<path d="M14.9995 17.1917C15.2205 17.1917 15.4325 17.1039 15.5888 16.9477C15.7451 16.7914 15.8328 16.5794 15.8328 16.3584V7.06673C15.8328 6.84572 15.7451 6.63376 15.5888 6.47748C15.4325 6.3212 15.2205 6.2334 14.9995 6.2334C14.7785 6.2334 14.5665 6.3212 14.4103 6.47748C14.254 6.63376 14.1662 6.84572 14.1662 7.06673V16.3417C14.164 16.4526 14.1839 16.5627 14.2248 16.6658C14.2657 16.7688 14.3267 16.8626 14.4043 16.9418C14.4819 17.0209 14.5745 17.0838 14.6767 17.1267C14.7789 17.1697 14.8887 17.1918 14.9995 17.1917Z" fill="#087021"/>
<path d="M14.9999 21.1417C15.6121 21.1417 16.1083 20.6455 16.1083 20.0334C16.1083 19.4213 15.6121 18.925 14.9999 18.925C14.3878 18.925 13.8916 19.4213 13.8916 20.0334C13.8916 20.6455 14.3878 21.1417 14.9999 21.1417Z" fill="#087021"/>
</g>
<defs>
<clipPath id="clip0_197_27160">
<rect width="30" height="30" fill="white"/>
</clipPath>
</defs>
</svg>
