<svg width="32" height="32" viewBox="0 0 32 32" fill="none" xmlns="http://www.w3.org/2000/svg">
<g clip-path="url(#clip0_197_27126)">
<path d="M10.2132 16.8888C10.9496 16.8888 11.5465 16.2919 11.5465 15.5555C11.5465 14.8191 10.9496 14.2222 10.2132 14.2222C9.47684 14.2222 8.87988 14.8191 8.87988 15.5555C8.87988 16.2919 9.47684 16.8888 10.2132 16.8888Z" fill="#087021"/>
<path d="M29.7604 8.25788C29.6253 8.17987 29.472 8.13879 29.316 8.13879C29.16 8.13879 29.0067 8.17987 28.8716 8.25788C25.876 10.0357 23.6182 13.4223 22.7382 14.8801L22.0893 16.0001L21.2004 17.4401C19.636 19.6534 16.6671 23.0934 13.3871 23.0934C9.25378 23.0934 5.60934 17.6268 4.64045 16.0357C5.60934 14.4446 9.24489 8.97788 13.3871 8.97788C16.5338 8.97788 19.4049 12.1601 21.0138 14.3734L21.2627 13.9468C21.2627 13.9468 21.5827 13.4934 22.0893 12.8357C20.196 10.3468 17.0493 7.16455 13.3338 7.16455C7.476 7.16455 2.96045 15.2268 2.77378 15.5734L2.56934 16.0001L2.80934 16.4268C2.996 16.7734 7.51156 24.8357 13.3693 24.8357C17.8671 24.8357 21.5649 20.089 23.1471 17.7245C23.1116 17.7779 24.1604 16.0001 24.1604 16.0001L24.2227 15.9023C24.7032 15.0378 25.2626 14.2195 25.8938 13.4579C26.648 12.4846 27.4999 11.5911 28.436 10.7912V21.2268C27.2177 20.1848 26.1391 18.9897 25.2271 17.6712L25.0849 17.9023L24.196 19.3157C25.4414 21.0674 27.014 22.5615 28.8271 23.7157C28.9617 23.7955 29.115 23.8385 29.2716 23.8401C29.4266 23.8364 29.5788 23.7969 29.716 23.7246C29.8517 23.6462 29.9642 23.5335 30.0422 23.3977C30.1203 23.2619 30.1611 23.1078 30.1604 22.9512V9.03122C30.1657 8.87883 30.1317 8.72766 30.0616 8.59222C29.9916 8.45679 29.8879 8.34166 29.7604 8.25788Z" fill="#087021"/>
</g>
<defs>
<clipPath id="clip0_197_27126">
<rect width="32" height="32" fill="white"/>
</clipPath>
</defs>
</svg>
