<svg width="28" height="28" viewBox="0 0 28 28" fill="none" xmlns="http://www.w3.org/2000/svg">
<path d="M23.625 7.00004H25.375C25.6071 7.00004 25.8296 6.90785 25.9937 6.74376C26.1578 6.57966 26.25 6.35711 26.25 6.12504C26.25 5.89298 26.1578 5.67042 25.9937 5.50632C25.8296 5.34223 25.6071 5.25004 25.375 5.25004H18.375V2.62329C18.375 2.39123 18.2828 2.16867 18.1187 2.00457C17.9546 1.84048 17.7321 1.74829 17.5 1.74829H10.5C10.2679 1.74829 10.0454 1.84048 9.88128 2.00457C9.71719 2.16867 9.625 2.39123 9.625 2.62329V5.25004H2.625C2.39294 5.25004 2.17038 5.34223 2.00628 5.50632C1.84219 5.67042 1.75 5.89298 1.75 6.12504C1.75 6.35711 1.84219 6.57966 2.00628 6.74376C2.17038 6.90785 2.39294 7.00004 2.625 7.00004H4.375V25.375C4.375 25.6071 4.46719 25.8297 4.63128 25.9938C4.79538 26.1579 5.01794 26.25 5.25 26.25H22.75C22.9821 26.25 23.2046 26.1579 23.3687 25.9938C23.5328 25.8297 23.625 25.6071 23.625 25.375V7.00004ZM11.375 5.25004V3.50004H16.625V5.25004H11.375ZM21.875 24.5H6.125V7.00004H21.875V24.5ZM16.625 21C16.8571 21 17.0796 20.9079 17.2437 20.7438C17.4078 20.5797 17.5 20.3571 17.5 20.125V11.375C17.5 11.143 17.4078 10.9204 17.2437 10.7563C17.0796 10.5922 16.8571 10.5 16.625 10.5C16.3929 10.5 16.1704 10.5922 16.0063 10.7563C15.8422 10.9204 15.75 11.143 15.75 11.375V20.125C15.75 20.3571 15.8422 20.5797 16.0063 20.7438C16.1704 20.9079 16.3929 21 16.625 21ZM11.375 21C11.6071 21 11.8296 20.9079 11.9937 20.7438C12.1578 20.5797 12.25 20.3571 12.25 20.125V11.375C12.25 11.143 12.1578 10.9204 11.9937 10.7563C11.8296 10.5922 11.6071 10.5 11.375 10.5C11.1429 10.5 10.9204 10.5922 10.7563 10.7563C10.5922 10.9204 10.5 11.143 10.5 11.375V20.125C10.5 20.3571 10.5922 20.5797 10.7563 20.7438C10.9204 20.9079 11.1429 21 11.375 21Z" fill="#087021"/>
</svg>
