<svg width="40" height="40" viewBox="0 0 40 40" fill="none" xmlns="http://www.w3.org/2000/svg">
<circle cx="20" cy="20" r="20" fill="#087021"/>
<path d="M20.4997 29.4997C20.3995 29.4998 20.3004 29.4797 20.2081 29.4408C20.1158 29.4019 20.0322 29.3449 19.9623 29.2731C19.8924 29.2014 19.8375 29.1164 19.801 29.0231C19.7645 28.9298 19.7471 28.8302 19.7497 28.73V20.1308C19.7497 20.0314 19.7102 19.936 19.6399 19.8657C19.5695 19.7953 19.4742 19.7558 19.3747 19.7558H10.7689C10.6112 19.7577 10.4567 19.7107 10.3267 19.6213C10.1967 19.532 10.0976 19.4046 10.0428 19.2566C9.9805 19.0802 9.98638 18.8868 10.0593 18.7145C10.1323 18.5421 10.267 18.4033 10.437 18.3252L28.437 10.0682C28.5761 10.0044 28.7313 9.98477 28.8819 10.0118C29.0325 10.0388 29.1712 10.1112 29.2794 10.2193C29.3876 10.3274 29.4602 10.466 29.4875 10.6165C29.5147 10.767 29.4952 10.9223 29.4317 11.0614L21.1817 29.0614C21.122 29.1922 21.026 29.303 20.905 29.3807C20.7841 29.4584 20.6434 29.4997 20.4997 29.4997Z" fill="white"/>
</svg>
